# xmcd
#
# Track frame offsets: 
#        183
#        12623
#        28128
#        43280
#        56950
#        68578
#        81548
#        96715
#        108398
#        120238
#        133828
#        149340
#        168353
#        181228
#        194525
#        206950
#        221655
#        232230
#        244815
#        256533
#        267858
#        282853
#        294505
#        305795
#
# Disc length: 4218 seconds
#
# Revision: 3
# Processed by: cddbd v1.5.2PL0 Copyright (c) Steve Scherf et al.
# Submitted via: ExactAudioCopy v1.3
#
DISCID=85107818
DTITLE=Paul Robeson - The Glorious Voice of Paul Robeson
DYEAR=1990
DGENRE=Vocal
TTITLE0=Lonesome Road
TTITLE1=River, Stay away from my Door
TTITLE2=Mighty Lika a Rose
TTITLE3=Ma Curly Headeds Baby
TTITLE4=Ol' Man River
TTITLE5=Round the Bend of the Road
TTITLE6=Lazy Bones
TTITLE7=Water Boy
TTITLE8=Songs of Freedom
TTITLE9=Paul Robeson, Elizabeth Welch - Sleepy River
TTITLE10=Paul Robeson, Jack Hylton and His Orch. and Chorus - Medley of 
TTITLE10=Spirituals - 
TTITLE11=Paul Robeson, Jack Hylton and His Orch. and Chorus - Medley of 
TTITLE11=Spirituals Conclusion
TTITLE12=Carry me Back to Green Pastures
TTITLE13=The Canoe Song
TTITLE14=Paul Robeson, Elizabeth Welch - I Still suits Me
TTITLE15=Lonely Road
TTITLE16=Passing Road
TTITLE17=My Way
TTITLE18=Summertime
TTITLE19=It ain't Necessarily So
TTITLE20=All Through the Night
TTITLE21=Just a-Wearyin' for You
TTITLE22=A Perfect Day
TTITLE23=Deep River
EXTD=
EXTT0=
EXTT1=
EXTT2=
EXTT3=
EXTT4=
EXTT5=
EXTT6=
EXTT7=
EXTT8=
EXTT9=
EXTT10=
EXTT11=
EXTT12=
EXTT13=
EXTT14=
EXTT15=
EXTT16=
EXTT17=
EXTT18=
EXTT19=
EXTT20=
EXTT21=
EXTT22=
EXTT23=
PLAYORDER=
